<svg xmlns="http://www.w3.org/2000/svg" xmlns:xlink="http://www.w3.org/1999/xlink"><defs>
<linearGradient id="paint0_linear_1_137" x1="0" y1="3" x2="23.4754" y2="70.4479" gradientUnits="userSpaceOnUse">
<stop stop-color="#D10A42"/>
<stop offset="1" stop-color="#0041CA"/>
</linearGradient>

<linearGradient id="paint0_linear_1_633" x1="0" y1="2" x2="19.0219" y2="57.1711" gradientUnits="userSpaceOnUse">
<stop stop-color="#D10A42"/>
<stop offset="1" stop-color="#0041CA"/>
</linearGradient>

<linearGradient id="paint0_linear_1_125" x1="0" y1="2" x2="31.5181" y2="60.6935" gradientUnits="userSpaceOnUse">
<stop stop-color="#D10A42"/>
<stop offset="1" stop-color="#0041CA"/>
</linearGradient>

<linearGradient id="paint0_linear_1_638" x1="0" y1="2" x2="25.7646" y2="49.8593" gradientUnits="userSpaceOnUse">
<stop stop-color="#D10A42"/>
<stop offset="1" stop-color="#0041CA"/>
</linearGradient>

<linearGradient id="paint0_linear_1_131" x1="0" y1="3" x2="31.023" y2="62.4222" gradientUnits="userSpaceOnUse">
<stop stop-color="#D10A42"/>
<stop offset="1" stop-color="#0041CA"/>
</linearGradient>

<linearGradient id="paint0_linear_1_623" x1="0" y1="2" x2="25.2696" y2="50.5869" gradientUnits="userSpaceOnUse">
<stop stop-color="#D10A42"/>
<stop offset="1" stop-color="#0041CA"/>
</linearGradient>

<linearGradient id="paint0_linear_1_115" x1="0" y1="3" x2="22.4438" y2="41.104" gradientUnits="userSpaceOnUse">
<stop stop-color="#D10A42"/>
<stop offset="1" stop-color="#0041CA"/>
</linearGradient>

<linearGradient id="paint0_linear_1_617" x1="0" y1="2" x2="18.2371" y2="33.256" gradientUnits="userSpaceOnUse">
<stop stop-color="#D10A42"/>
<stop offset="1" stop-color="#0041CA"/>
</linearGradient>

<linearGradient id="paint0_linear_1_155" x1="19.774" y1="3.00672e-05" x2="105.785" y2="10.6444" gradientUnits="userSpaceOnUse">
<stop stop-color="#ED0233"/>
<stop offset="1" stop-color="#003EB7"/>
</linearGradient>
<linearGradient id="paint1_linear_1_155" x1="14" y1="49.52" x2="54.1858" y2="9.18415" gradientUnits="userSpaceOnUse">
<stop stop-color="#003D85"/>
<stop offset="0.885417" stop-color="#B80027"/>
</linearGradient>

            <linearGradient id="paint0_linear_1_155" x1="19.774" y1="3.00672e-05" x2="105.785" y2="10.6444" gradientUnits="userSpaceOnUse">
              <stop stop-color="#ED0233"/>
              <stop offset="1" stop-color="#003EB7"/>
            </linearGradient>
            <linearGradient id="paint1_linear_1_155" x1="14" y1="49.52" x2="54.1858" y2="9.18415" gradientUnits="userSpaceOnUse">
              <stop stop-color="#003D85"/>
              <stop offset="0.885417" stop-color="#B80027"/>
            </linearGradient>
          </defs><symbol id="350d" viewBox="0 0 108 75">
<path d="M12.0298 22.2896H16.7793C18.582 22.2896 19.8994 21.6655 20.7314 20.4175C21.5866 19.1463 22.0142 17.4591 22.0142 15.356C22.0142 13.3452 21.575 11.7852 20.6968 10.6758C19.8416 9.54329 18.686 8.97705 17.23 8.97705C15.8664 8.97705 14.7454 9.50863 13.8672 10.5718C13.012 11.6349 12.5845 12.9754 12.5845 14.5933H2.77344C2.77344 11.9585 3.37435 9.60107 4.57617 7.521C5.80111 5.41781 7.49984 3.77686 9.67236 2.59814C11.868 1.41943 14.2948 0.830078 16.9526 0.830078C21.5981 0.830078 25.2383 2.11279 27.873 4.67822C30.5078 7.24365 31.8252 10.7567 31.8252 15.2173C31.8252 17.5054 31.2243 19.6317 30.0225 21.5962C28.8438 23.5376 27.2837 25.0283 25.3423 26.0684C27.7228 27.0853 29.4909 28.6107 30.6465 30.6445C31.8252 32.6784 32.4146 35.082 32.4146 37.8555C32.4146 42.3392 30.9816 45.9331 28.1157 48.6372C25.2729 51.3413 21.5288 52.6934 16.8833 52.6934C12.5614 52.6934 9.04834 51.3644 6.34424 48.7065C3.66325 46.0256 2.32275 42.5125 2.32275 38.1675H12.1338C12.1338 39.9702 12.6076 41.484 13.5552 42.709C14.5028 43.9339 15.7046 44.5464 17.1606 44.5464C18.8478 44.5464 20.1768 43.9224 21.1475 42.6743C22.1413 41.4263 22.6382 39.7622 22.6382 37.6821C22.6382 32.7131 20.7083 30.217 16.8486 30.1938H12.0298V22.2896ZM40.2148 27.1777L42.7109 1.52344H67.1519V9.91309H50.7539L49.8525 20.7295C51.7477 19.4583 53.7007 18.8228 55.7114 18.8228C59.8716 18.8228 63.0726 20.3019 65.3145 23.2603C67.5794 26.2186 68.7119 30.4019 68.7119 35.8101C68.7119 40.8716 67.3714 44.9508 64.6904 48.0479C62.0094 51.1449 58.4271 52.6934 53.9434 52.6934C51.2855 52.6934 48.8241 52.0693 46.5591 50.8213C44.2941 49.5501 42.5029 47.7936 41.1855 45.5518C39.8913 43.3099 39.2326 40.7676 39.2095 37.9248H48.9165C49.0783 40.028 49.5983 41.6574 50.4766 42.813C51.3548 43.9686 52.4873 44.5464 53.874 44.5464C55.4919 44.5464 56.7399 43.7721 57.6182 42.2236C58.4964 40.652 58.9355 38.3177 58.9355 35.2207C58.9355 32.3086 58.404 30.113 57.3408 28.6338C56.3008 27.1546 54.8332 26.415 52.938 26.415C51.089 26.415 49.6561 27.0506 48.6392 28.3218L48.0151 29.1885L40.2148 27.1777ZM104.455 31.1299C104.455 38.1097 103.183 43.4486 100.641 47.1465C98.1219 50.8444 94.5164 52.6934 89.8247 52.6934C85.1792 52.6934 81.5853 50.9022 79.043 47.3198C76.5238 43.7144 75.2179 38.5604 75.1255 31.8579V22.3242C75.1255 15.3675 76.3851 10.0518 78.9043 6.37695C81.4235 2.67904 85.0405 0.830078 89.7554 0.830078C94.4702 0.830078 98.0872 2.65592 100.606 6.30762C103.126 9.95931 104.408 15.1711 104.455 21.9429V31.1299ZM94.6089 20.9028C94.6089 16.9276 94.216 13.9461 93.4302 11.9585C92.6444 9.97087 91.4194 8.97705 89.7554 8.97705C86.6353 8.97705 85.0174 12.6172 84.9019 19.8975V32.4819C84.9019 36.5496 85.2948 39.5773 86.0806 41.5649C86.8895 43.5526 88.1375 44.5464 89.8247 44.5464C91.4194 44.5464 92.5981 43.6219 93.3608 41.7729C94.1466 39.9009 94.5627 37.0465 94.6089 33.21V20.9028Z" fill="url(#paint0_linear_1_137)"/>
<path d="M4.53223 72.3252L6.51465 66.6035H8.01855V74H6.81543V68.9004L4.94922 74H4.12207L2.21484 68.7773V74H1.01172V66.6035H2.57031L4.53223 72.3252ZM12.5986 74.1367C11.6781 74.1367 10.9717 73.8633 10.4795 73.3164C9.9873 72.765 9.73665 71.9583 9.72754 70.8965V70.001C9.72754 68.8981 9.9668 68.0345 10.4453 67.4102C10.9284 66.7812 11.6006 66.4668 12.4619 66.4668C13.3278 66.4668 13.9749 66.7425 14.4033 67.2939C14.8317 67.8454 15.0505 68.7044 15.0596 69.8711V70.6641H10.9307V70.835C10.9307 71.6279 11.0788 72.2044 11.375 72.5645C11.6758 72.9245 12.1064 73.1045 12.667 73.1045C13.0225 73.1045 13.3346 73.0384 13.6035 72.9062C13.877 72.7695 14.1322 72.5553 14.3691 72.2637L14.998 73.0293C14.474 73.7676 13.6742 74.1367 12.5986 74.1367ZM12.4619 67.5059C11.9606 67.5059 11.5892 67.679 11.3477 68.0254C11.1061 68.3672 10.9694 68.9004 10.9375 69.625H13.8496V69.4609C13.8177 68.7591 13.6901 68.2578 13.4668 67.957C13.248 67.6562 12.9131 67.5059 12.4619 67.5059ZM19.0859 73.1045C19.487 73.1045 19.8083 72.9814 20.0498 72.7354C20.2913 72.4847 20.4235 72.1292 20.4463 71.6689H21.5879C21.5605 72.3799 21.3076 72.9701 20.8291 73.4395C20.3551 73.9043 19.7741 74.1367 19.0859 74.1367C18.1699 74.1367 17.4704 73.8496 16.9873 73.2754C16.5088 72.6966 16.2695 71.8376 16.2695 70.6982V69.8848C16.2695 68.7682 16.5088 67.9206 16.9873 67.3418C17.4658 66.7585 18.1631 66.4668 19.0791 66.4668C19.8356 66.4668 20.4349 66.7061 20.877 67.1846C21.3236 67.6631 21.5605 68.3171 21.5879 69.1465H20.4463C20.4189 68.5996 20.2868 68.1895 20.0498 67.916C19.8174 67.6426 19.4938 67.5059 19.0791 67.5059C18.5413 67.5059 18.1426 67.6836 17.8828 68.0391C17.623 68.39 17.4886 68.9688 17.4795 69.7754V70.7188C17.4795 71.5892 17.6071 72.2044 17.8623 72.5645C18.1221 72.9245 18.5299 73.1045 19.0859 73.1045ZM27.6582 67.6289H25.6416V74H24.4385V67.6289H22.4492V66.6035H27.6582V67.6289Z" fill="#2E35AC"/>

</symbol><symbol id="350m" viewBox="0 0 89 63">
<path d="M9.82715 17.7295H13.707C15.1797 17.7295 16.2559 17.2197 16.9355 16.2002C17.6341 15.1618 17.9834 13.7835 17.9834 12.0654C17.9834 10.4229 17.6247 9.14844 16.9072 8.24219C16.2087 7.31706 15.2646 6.85449 14.0752 6.85449C12.9613 6.85449 12.0456 7.28874 11.3281 8.15723C10.6296 9.02572 10.2803 10.1208 10.2803 11.4424H2.26562C2.26562 9.29004 2.75651 7.36426 3.73828 5.66504C4.73893 3.94694 6.12663 2.60645 7.90137 1.64355C9.69499 0.680664 11.6774 0.199219 13.8486 0.199219C17.6436 0.199219 20.6172 1.24707 22.7695 3.34277C24.9219 5.43848 25.998 8.30827 25.998 11.9521C25.998 13.8213 25.5072 15.5583 24.5254 17.1631C23.5625 18.749 22.2881 19.9668 20.7021 20.8164C22.6468 21.6471 24.0911 22.8932 25.0352 24.5547C25.998 26.2161 26.4795 28.1797 26.4795 30.4453C26.4795 34.1081 25.3089 37.0439 22.9678 39.2529C20.6455 41.4619 17.5869 42.5664 13.792 42.5664C10.2614 42.5664 7.3916 41.4808 5.18262 39.3096C2.99251 37.1195 1.89746 34.2497 1.89746 30.7002H9.91211C9.91211 32.1729 10.2992 33.4095 11.0732 34.4102C11.8473 35.4108 12.8291 35.9111 14.0186 35.9111C15.3968 35.9111 16.4824 35.4014 17.2754 34.3818C18.0872 33.3623 18.4932 32.0029 18.4932 30.3037C18.4932 26.2445 16.9167 24.2054 13.7637 24.1865H9.82715V17.7295ZM32.8516 21.7227L34.8906 0.765625H54.8564V7.61914H41.4609L40.7246 16.4551C42.2728 15.4167 43.8682 14.8975 45.5107 14.8975C48.9092 14.8975 51.5241 16.1058 53.3555 18.5225C55.2057 20.9391 56.1309 24.3564 56.1309 28.7744C56.1309 32.9092 55.0358 36.2415 52.8457 38.7715C50.6556 41.3014 47.7292 42.5664 44.0664 42.5664C41.8952 42.5664 39.8844 42.0566 38.0342 41.0371C36.1839 39.9987 34.7207 38.5638 33.6445 36.7324C32.5872 34.901 32.0492 32.8242 32.0303 30.502H39.96C40.0921 32.2201 40.5169 33.5511 41.2344 34.4951C41.9518 35.4391 42.877 35.9111 44.0098 35.9111C45.3314 35.9111 46.3509 35.2786 47.0684 34.0137C47.7858 32.7298 48.1445 30.8229 48.1445 28.293C48.1445 25.9141 47.7103 24.1204 46.8418 22.9121C45.9922 21.7038 44.7933 21.0996 43.2451 21.0996C41.7347 21.0996 40.5641 21.6188 39.7334 22.6572L39.2236 23.3652L32.8516 21.7227ZM85.3291 24.9512C85.3291 30.653 84.2907 35.0143 82.2139 38.0352C80.1559 41.056 77.2106 42.5664 73.3779 42.5664C69.583 42.5664 66.6471 41.1032 64.5703 38.1768C62.5124 35.2314 61.4456 31.0212 61.3701 25.5459V17.7578C61.3701 12.0749 62.3991 7.73242 64.457 4.73047C66.515 1.70964 69.4697 0.199219 73.3213 0.199219C77.1729 0.199219 80.1276 1.69076 82.1855 4.67383C84.2435 7.6569 85.2913 11.9144 85.3291 17.4463V24.9512ZM77.2861 16.5967C77.2861 13.3493 76.9652 10.9137 76.3232 9.29004C75.6813 7.66634 74.6807 6.85449 73.3213 6.85449C70.7725 6.85449 69.4508 9.82812 69.3564 15.7754V26.0557C69.3564 29.3786 69.6774 31.8519 70.3193 33.4756C70.9801 35.0993 71.9997 35.9111 73.3779 35.9111C74.6807 35.9111 75.6436 35.1559 76.2666 33.6455C76.9085 32.1162 77.2484 29.7845 77.2861 26.6504V16.5967Z" fill="url(#paint0_linear_1_633)"/>
<path d="M34.5322 60.3252L36.5146 54.6035H38.0186V62H36.8154V56.9004L34.9492 62H34.1221L32.2148 56.7773V62H31.0117V54.6035H32.5703L34.5322 60.3252ZM42.5986 62.1367C41.6781 62.1367 40.9717 61.8633 40.4795 61.3164C39.9873 60.765 39.7367 59.9583 39.7275 58.8965V58.001C39.7275 56.8981 39.9668 56.0345 40.4453 55.4102C40.9284 54.7812 41.6006 54.4668 42.4619 54.4668C43.3278 54.4668 43.9749 54.7425 44.4033 55.2939C44.8317 55.8454 45.0505 56.7044 45.0596 57.8711V58.6641H40.9307V58.835C40.9307 59.6279 41.0788 60.2044 41.375 60.5645C41.6758 60.9245 42.1064 61.1045 42.667 61.1045C43.0225 61.1045 43.3346 61.0384 43.6035 60.9062C43.877 60.7695 44.1322 60.5553 44.3691 60.2637L44.998 61.0293C44.474 61.7676 43.6742 62.1367 42.5986 62.1367ZM42.4619 55.5059C41.9606 55.5059 41.5892 55.679 41.3477 56.0254C41.1061 56.3672 40.9694 56.9004 40.9375 57.625H43.8496V57.4609C43.8177 56.7591 43.6901 56.2578 43.4668 55.957C43.248 55.6562 42.9131 55.5059 42.4619 55.5059ZM49.0859 61.1045C49.487 61.1045 49.8083 60.9814 50.0498 60.7354C50.2913 60.4847 50.4235 60.1292 50.4463 59.6689H51.5879C51.5605 60.3799 51.3076 60.9701 50.8291 61.4395C50.3551 61.9043 49.7741 62.1367 49.0859 62.1367C48.1699 62.1367 47.4704 61.8496 46.9873 61.2754C46.5088 60.6966 46.2695 59.8376 46.2695 58.6982V57.8848C46.2695 56.7682 46.5088 55.9206 46.9873 55.3418C47.4658 54.7585 48.1631 54.4668 49.0791 54.4668C49.8356 54.4668 50.4349 54.7061 50.877 55.1846C51.3236 55.6631 51.5605 56.3171 51.5879 57.1465H50.4463C50.4189 56.5996 50.2868 56.1895 50.0498 55.916C49.8174 55.6426 49.4938 55.5059 49.0791 55.5059C48.5413 55.5059 48.1426 55.6836 47.8828 56.0391C47.623 56.39 47.4886 56.9688 47.4795 57.7754V58.7188C47.4795 59.5892 47.6071 60.2044 47.8623 60.5645C48.1221 60.9245 48.5299 61.1045 49.0859 61.1045ZM57.6582 55.6289H55.6416V62H54.4385V55.6289H52.4492V54.6035H57.6582V55.6289Z" fill="#2E35AC"/>

</symbol><symbol id="5d" viewBox="0 0 70 74">
<path d="M4.29883 26.1777L6.79492 0.523438H31.2358V8.91309H14.8379L13.9365 19.7295C15.8317 18.4583 17.7847 17.8228 19.7954 17.8228C23.9556 17.8228 27.1566 19.3019 29.3984 22.2603C31.6634 25.2186 32.7959 29.4019 32.7959 34.8101C32.7959 39.8716 31.4554 43.9508 28.7744 47.0479C26.0934 50.1449 22.5111 51.6934 18.0273 51.6934C15.3695 51.6934 12.908 51.0693 10.6431 49.8213C8.37809 48.5501 6.58691 46.7936 5.26953 44.5518C3.97526 42.3099 3.31657 39.7676 3.29346 36.9248H13.0005C13.1623 39.028 13.6823 40.6574 14.5605 41.813C15.4388 42.9686 16.5713 43.5464 17.958 43.5464C19.5758 43.5464 20.8239 42.7721 21.7021 41.2236C22.5804 39.652 23.0195 37.3177 23.0195 34.2207C23.0195 31.3086 22.488 29.113 21.4248 27.6338C20.3848 26.1546 18.9172 25.415 17.022 25.415C15.173 25.415 13.7401 26.0506 12.7231 27.3218L12.0991 28.1885L4.29883 26.1777ZM57.4102 22.7109H67.2212V31.8286H57.4102V45.9385H48.1191V31.8286H38.1348V22.7109H48.1191V9.19043H57.4102V22.7109Z" fill="url(#paint0_linear_1_125)"/>
<path d="M6.11816 65.6035V73H4.9082V66.6494H2.95996L2.84375 69.1582C2.77995 70.5482 2.5931 71.5348 2.2832 72.1182C1.97331 72.6969 1.47656 72.9909 0.792969 73H0.389648V71.8857L0.697266 71.8584C1.03451 71.8128 1.27148 71.5872 1.4082 71.1816C1.54948 70.7715 1.6429 69.9671 1.68848 68.7686L1.80469 65.6035H6.11816ZM10.6846 73.1367C9.764 73.1367 9.05762 72.8633 8.56543 72.3164C8.07324 71.765 7.82259 70.9583 7.81348 69.8965V69.001C7.81348 67.8981 8.05273 67.0345 8.53125 66.4102C9.01432 65.7812 9.68652 65.4668 10.5479 65.4668C11.4137 65.4668 12.0609 65.7425 12.4893 66.2939C12.9176 66.8454 13.1364 67.7044 13.1455 68.8711V69.6641H9.0166V69.835C9.0166 70.6279 9.16471 71.2044 9.46094 71.5645C9.76172 71.9245 10.1924 72.1045 10.7529 72.1045C11.1084 72.1045 11.4206 72.0384 11.6895 71.9062C11.9629 71.7695 12.2181 71.5553 12.4551 71.2637L13.084 72.0293C12.5599 72.7676 11.7601 73.1367 10.6846 73.1367ZM10.5479 66.5059C10.0465 66.5059 9.67513 66.679 9.43359 67.0254C9.19206 67.3672 9.05534 67.9004 9.02344 68.625H11.9355V68.4609C11.9036 67.7591 11.776 67.2578 11.5527 66.957C11.334 66.6562 10.999 66.5059 10.5479 66.5059ZM19.1953 66.6289H17.1787V73H15.9756V66.6289H13.9863V65.6035H19.1953V66.6289Z" fill="#2E35AC"/>

</symbol><symbol id="5m" viewBox="0 0 57 63">
<path d="M3.51172 21.7227L5.55078 0.765625H25.5166V7.61914H12.1211L11.3848 16.4551C12.9329 15.4167 14.5283 14.8975 16.1709 14.8975C19.5693 14.8975 22.1842 16.1058 24.0156 18.5225C25.8659 20.9391 26.791 24.3564 26.791 28.7744C26.791 32.9092 25.696 36.2415 23.5059 38.7715C21.3158 41.3014 18.3893 42.5664 14.7266 42.5664C12.5553 42.5664 10.5446 42.0566 8.69434 41.0371C6.84408 39.9987 5.38086 38.5638 4.30469 36.7324C3.2474 34.901 2.70931 32.8242 2.69043 30.502H10.6201C10.7523 32.2201 11.1771 33.5511 11.8945 34.4951C12.612 35.4391 13.5371 35.9111 14.6699 35.9111C15.9915 35.9111 17.0111 35.2786 17.7285 34.0137C18.446 32.7298 18.8047 30.8229 18.8047 28.293C18.8047 25.9141 18.3704 24.1204 17.502 22.9121C16.6523 21.7038 15.4535 21.0996 13.9053 21.0996C12.3949 21.0996 11.2243 21.6188 10.3936 22.6572L9.88379 23.3652L3.51172 21.7227ZM46.8984 18.8906H54.9131V26.3389H46.8984V37.8652H39.3086V26.3389H31.1523V18.8906H39.3086V7.8457H46.8984V18.8906Z" fill="url(#paint0_linear_1_638)"/>
<path d="M24.1182 54.6035V62H22.9082V55.6494H20.96L20.8438 58.1582C20.7799 59.5482 20.5931 60.5348 20.2832 61.1182C19.9733 61.6969 19.4766 61.9909 18.793 62H18.3896V60.8857L18.6973 60.8584C19.0345 60.8128 19.2715 60.5872 19.4082 60.1816C19.5495 59.7715 19.6429 58.9671 19.6885 57.7686L19.8047 54.6035H24.1182ZM28.6846 62.1367C27.764 62.1367 27.0576 61.8633 26.5654 61.3164C26.0732 60.765 25.8226 59.9583 25.8135 58.8965V58.001C25.8135 56.8981 26.0527 56.0345 26.5312 55.4102C27.0143 54.7812 27.6865 54.4668 28.5479 54.4668C29.4137 54.4668 30.0609 54.7425 30.4893 55.2939C30.9176 55.8454 31.1364 56.7044 31.1455 57.8711V58.6641H27.0166V58.835C27.0166 59.6279 27.1647 60.2044 27.4609 60.5645C27.7617 60.9245 28.1924 61.1045 28.7529 61.1045C29.1084 61.1045 29.4206 61.0384 29.6895 60.9062C29.9629 60.7695 30.2181 60.5553 30.4551 60.2637L31.084 61.0293C30.5599 61.7676 29.7601 62.1367 28.6846 62.1367ZM28.5479 55.5059C28.0465 55.5059 27.6751 55.679 27.4336 56.0254C27.1921 56.3672 27.0553 56.9004 27.0234 57.625H29.9355V57.4609C29.9036 56.7591 29.776 56.2578 29.5527 55.957C29.334 55.6562 28.999 55.5059 28.5479 55.5059ZM37.1953 55.6289H35.1787V62H33.9756V55.6289H31.9863V54.6035H37.1953V55.6289Z" fill="#2E35AC"/>

</symbol><symbol id="70d" viewBox="0 0 72 75">
<path d="M32.8999 7.17432L16.9526 52H6.58691L22.6035 9.67041H2.35742V1.52344H32.8999V7.17432ZM68.5386 31.1299C68.5386 38.1097 67.2674 43.4486 64.7251 47.1465C62.2059 50.8444 58.6004 52.6934 53.9087 52.6934C49.2632 52.6934 45.6693 50.9022 43.127 47.3198C40.6077 43.7144 39.3019 38.5604 39.2095 31.8579V22.3242C39.2095 15.3675 40.4691 10.0518 42.9883 6.37695C45.5075 2.67904 49.1245 0.830078 53.8394 0.830078C58.5542 0.830078 62.1712 2.65592 64.6904 6.30762C67.2096 9.95931 68.4924 15.1711 68.5386 21.9429V31.1299ZM58.6929 20.9028C58.6929 16.9276 58.3 13.9461 57.5142 11.9585C56.7284 9.97087 55.5034 8.97705 53.8394 8.97705C50.7192 8.97705 49.1014 12.6172 48.9858 19.8975V32.4819C48.9858 36.5496 49.3787 39.5773 50.1646 41.5649C50.9735 43.5526 52.2215 44.5464 53.9087 44.5464C55.5034 44.5464 56.6821 43.6219 57.4448 41.7729C58.2306 39.9009 58.6466 37.0465 58.6929 33.21V20.9028Z" fill="url(#paint0_linear_1_131)"/>
<path d="M4.53223 72.3252L6.51465 66.6035H8.01855V74H6.81543V68.9004L4.94922 74H4.12207L2.21484 68.7773V74H1.01172V66.6035H2.57031L4.53223 72.3252ZM13.7607 74C13.6878 73.8405 13.6354 73.5716 13.6035 73.1934C13.1751 73.8223 12.6283 74.1367 11.9629 74.1367C11.293 74.1367 10.7689 73.9499 10.3906 73.5762C10.0169 73.1979 9.83008 72.667 9.83008 71.9834C9.83008 71.2314 10.0853 70.6344 10.5957 70.1924C11.1061 69.7503 11.8057 69.5247 12.6943 69.5156H13.583V68.7295C13.583 68.2874 13.485 67.973 13.2891 67.7861C13.0931 67.5993 12.7946 67.5059 12.3936 67.5059C12.029 67.5059 11.7327 67.6152 11.5049 67.834C11.277 68.0482 11.1631 68.3216 11.1631 68.6543H9.95312C9.95312 68.276 10.0648 67.916 10.2881 67.5742C10.5114 67.2279 10.8122 66.9567 11.1904 66.7607C11.5687 66.5648 11.9902 66.4668 12.4551 66.4668C13.2116 66.4668 13.7858 66.6559 14.1777 67.0342C14.5742 67.4079 14.777 67.9548 14.7861 68.6748V72.4072C14.7907 72.9769 14.8682 73.4714 15.0186 73.8906V74H13.7607ZM12.1475 73.0361C12.4437 73.0361 12.7262 72.9541 12.9951 72.79C13.264 72.626 13.46 72.4209 13.583 72.1748V70.4111H12.8994C12.3252 70.4202 11.8717 70.5501 11.5391 70.8008C11.2064 71.0469 11.04 71.3932 11.04 71.8398C11.04 72.2591 11.1243 72.5645 11.293 72.7559C11.4616 72.9427 11.7464 73.0361 12.1475 73.0361ZM17.9922 66.6035V72.9678H20.0771V66.6035H21.2803V72.9678H23.3721V66.6035H24.582V74H16.7754V66.6035H17.9922ZM30.5225 66.6035H31.7256V74H30.5225V68.6064L27.8428 74H26.6328V66.6035H27.8428V72.0039L30.5225 66.6035ZM38.8555 74H37.6523V70.8418H34.9863V74H33.7695V66.6035H34.9863V69.8096H37.6523V66.6035H38.8555V74Z" fill="#2E35AC"/>

</symbol><symbol id="70m" viewBox="0 0 59 63">
<path d="M26.876 5.38184L13.8486 42H5.38086L18.4648 7.4209H1.92578V0.765625H26.876V5.38184ZM55.9893 24.9512C55.9893 30.653 54.9508 35.0143 52.874 38.0352C50.8161 41.056 47.8708 42.5664 44.0381 42.5664C40.2432 42.5664 37.3073 41.1032 35.2305 38.1768C33.1725 35.2314 32.1058 31.0212 32.0303 25.5459V17.7578C32.0303 12.0749 33.0592 7.73242 35.1172 4.73047C37.1751 1.70964 40.1299 0.199219 43.9814 0.199219C47.833 0.199219 50.7878 1.69076 52.8457 4.67383C54.9036 7.6569 55.9515 11.9144 55.9893 17.4463V24.9512ZM47.9463 16.5967C47.9463 13.3493 47.6253 10.9137 46.9834 9.29004C46.3415 7.66634 45.3408 6.85449 43.9814 6.85449C41.4326 6.85449 40.111 9.82812 40.0166 15.7754V26.0557C40.0166 29.3786 40.3376 31.8519 40.9795 33.4756C41.6403 35.0993 42.6598 35.9111 44.0381 35.9111C45.3408 35.9111 46.3037 35.1559 46.9268 33.6455C47.5687 32.1162 47.9085 29.7845 47.9463 26.6504V16.5967Z" fill="url(#paint0_linear_1_623)"/>
<path d="M13.5322 60.3252L15.5146 54.6035H17.0186V62H15.8154V56.9004L13.9492 62H13.1221L11.2148 56.7773V62H10.0117V54.6035H11.5703L13.5322 60.3252ZM22.7607 62C22.6878 61.8405 22.6354 61.5716 22.6035 61.1934C22.1751 61.8223 21.6283 62.1367 20.9629 62.1367C20.293 62.1367 19.7689 61.9499 19.3906 61.5762C19.0169 61.1979 18.8301 60.667 18.8301 59.9834C18.8301 59.2314 19.0853 58.6344 19.5957 58.1924C20.1061 57.7503 20.8057 57.5247 21.6943 57.5156H22.583V56.7295C22.583 56.2874 22.485 55.973 22.2891 55.7861C22.0931 55.5993 21.7946 55.5059 21.3936 55.5059C21.029 55.5059 20.7327 55.6152 20.5049 55.834C20.277 56.0482 20.1631 56.3216 20.1631 56.6543H18.9531C18.9531 56.276 19.0648 55.916 19.2881 55.5742C19.5114 55.2279 19.8122 54.9567 20.1904 54.7607C20.5687 54.5648 20.9902 54.4668 21.4551 54.4668C22.2116 54.4668 22.7858 54.6559 23.1777 55.0342C23.5742 55.4079 23.777 55.9548 23.7861 56.6748V60.4072C23.7907 60.9769 23.8682 61.4714 24.0186 61.8906V62H22.7607ZM21.1475 61.0361C21.4437 61.0361 21.7262 60.9541 21.9951 60.79C22.264 60.626 22.46 60.4209 22.583 60.1748V58.4111H21.8994C21.3252 58.4202 20.8717 58.5501 20.5391 58.8008C20.2064 59.0469 20.04 59.3932 20.04 59.8398C20.04 60.2591 20.1243 60.5645 20.293 60.7559C20.4616 60.9427 20.7464 61.0361 21.1475 61.0361ZM26.9922 54.6035V60.9678H29.0771V54.6035H30.2803V60.9678H32.3721V54.6035H33.582V62H25.7754V54.6035H26.9922ZM39.5225 54.6035H40.7256V62H39.5225V56.6064L36.8428 62H35.6328V54.6035H36.8428V60.0039L39.5225 54.6035ZM47.8555 62H46.6523V58.8418H43.9863V62H42.7695V54.6035H43.9863V57.8096H46.6523V54.6035H47.8555V62Z" fill="#2E35AC"/>

</symbol><symbol id="900d" viewBox="0 0 108 75">
<path d="M22.3262 32.4819C20.2461 34.6082 17.9696 35.6714 15.4966 35.6714C11.66 35.6714 8.63232 34.1344 6.41357 31.0605C4.21794 27.9635 3.12012 23.8381 3.12012 18.6841C3.12012 15.356 3.74414 12.3167 4.99219 9.56641C6.24023 6.79297 7.97363 4.64355 10.1924 3.11816C12.4342 1.59277 14.9303 0.830078 17.6807 0.830078C20.5234 0.830078 23.0542 1.67367 25.2729 3.36084C27.4917 5.04801 29.2135 7.47477 30.4385 10.6411C31.6634 13.7843 32.2759 17.3667 32.2759 21.3882V24.959C32.2759 33.5566 30.3807 40.2822 26.5903 45.1357C22.8231 49.9661 17.4727 52.4276 10.5391 52.52H9.53369V44.061H10.1924C14.029 44.0379 16.9064 43.0441 18.8247 41.0796C20.7661 39.1151 21.9333 36.2492 22.3262 32.4819ZM17.9927 27.9751C19.8879 27.9751 21.3786 26.6808 22.4648 24.0923V19.5854C22.4648 16.2804 22.0142 13.6919 21.1128 11.8198C20.2114 9.92464 19.0443 8.97705 17.6113 8.97705C16.2015 8.97705 15.0575 9.91309 14.1792 11.7852C13.3241 13.6341 12.8965 15.8991 12.8965 18.5801C12.8965 21.4922 13.3472 23.7918 14.2485 25.479C15.1499 27.1431 16.3979 27.9751 17.9927 27.9751ZM68.5386 31.1299C68.5386 38.1097 67.2674 43.4486 64.7251 47.1465C62.2059 50.8444 58.6004 52.6934 53.9087 52.6934C49.2632 52.6934 45.6693 50.9022 43.127 47.3198C40.6077 43.7144 39.3019 38.5604 39.2095 31.8579V22.3242C39.2095 15.3675 40.4691 10.0518 42.9883 6.37695C45.5075 2.67904 49.1245 0.830078 53.8394 0.830078C58.5542 0.830078 62.1712 2.65592 64.6904 6.30762C67.2096 9.95931 68.4924 15.1711 68.5386 21.9429V31.1299ZM58.6929 20.9028C58.6929 16.9276 58.3 13.9461 57.5142 11.9585C56.7284 9.97087 55.5034 8.97705 53.8394 8.97705C50.7192 8.97705 49.1014 12.6172 48.9858 19.8975V32.4819C48.9858 36.5496 49.3787 39.5773 50.1646 41.5649C50.9735 43.5526 52.2215 44.5464 53.9087 44.5464C55.5034 44.5464 56.6821 43.6219 57.4448 41.7729C58.2306 39.9009 58.6466 37.0465 58.6929 33.21V20.9028ZM104.455 31.1299C104.455 38.1097 103.183 43.4486 100.641 47.1465C98.1219 50.8444 94.5164 52.6934 89.8247 52.6934C85.1792 52.6934 81.5853 50.9022 79.043 47.3198C76.5238 43.7144 75.2179 38.5604 75.1255 31.8579V22.3242C75.1255 15.3675 76.3851 10.0518 78.9043 6.37695C81.4235 2.67904 85.0405 0.830078 89.7554 0.830078C94.4702 0.830078 98.0872 2.65592 100.606 6.30762C103.126 9.95931 104.408 15.1711 104.455 21.9429V31.1299ZM94.6089 20.9028C94.6089 16.9276 94.216 13.9461 93.4302 11.9585C92.6444 9.97087 91.4194 8.97705 89.7554 8.97705C86.6353 8.97705 85.0174 12.6172 84.9019 19.8975V32.4819C84.9019 36.5496 85.2948 39.5773 86.0806 41.5649C86.8895 43.5526 88.1375 44.5464 89.8247 44.5464C91.4194 44.5464 92.5981 43.6219 93.3608 41.7729C94.1466 39.9009 94.5627 37.0465 94.6089 33.21V20.9028Z" fill="url(#paint0_linear_1_115)"/>
<path d="M2.91211 70.8486H2.22852V74H1.01855V66.6035H2.22852V69.7344H2.83008L4.84668 66.6035H6.28906L3.82129 70.124L6.4668 74H4.94922L2.91211 70.8486ZM7.73828 74V66.6035H10.2197C11.0674 66.6035 11.7145 66.7767 12.1611 67.123C12.6077 67.4694 12.8311 67.973 12.8311 68.6338C12.8311 68.9756 12.7422 69.2832 12.5645 69.5566C12.3867 69.8301 12.127 70.0397 11.7852 70.1855C12.1634 70.2858 12.4665 70.4886 12.6943 70.7939C12.9268 71.0993 13.043 71.4684 13.043 71.9014C13.043 72.585 12.8288 73.1068 12.4004 73.4668C11.9766 73.8223 11.375 74 10.5957 74H7.73828ZM8.94141 70.7529V72.9814H10.6094C11.4251 72.9814 11.833 72.6077 11.833 71.8604C11.833 71.1221 11.4206 70.7529 10.5957 70.7529H8.94141ZM8.94141 69.7412H10.2061C11.1494 69.7412 11.6211 69.3949 11.6211 68.7021C11.6211 68.0049 11.1768 67.6471 10.2881 67.6289H8.94141V69.7412ZM15.0186 74.8545H13.9932L17.4863 64.0469H18.5049L15.0186 74.8545ZM23.5088 72.3252L25.4912 66.6035H26.9951V74H25.792V68.9004L23.9258 74H23.0986L21.1914 68.7773V74H19.9883V66.6035H21.5469L23.5088 72.3252Z" fill="#2E35AC"/>

</symbol><symbol id="900m" viewBox="0 0 89 63">
<path d="M18.2383 26.0557C16.5391 27.7926 14.6794 28.6611 12.6592 28.6611C9.52507 28.6611 7.05176 27.4056 5.23926 24.8945C3.44564 22.3646 2.54883 18.9945 2.54883 14.7842C2.54883 12.0654 3.05859 9.58268 4.07812 7.33594C5.09766 5.07031 6.51367 3.31445 8.32617 2.06836C10.1576 0.822266 12.1966 0.199219 14.4434 0.199219C16.7656 0.199219 18.833 0.888346 20.6455 2.2666C22.458 3.64486 23.8646 5.62728 24.8652 8.21387C25.8659 10.7816 26.3662 13.708 26.3662 16.9932V19.9102C26.3662 26.9336 24.818 32.4277 21.7217 36.3926C18.6442 40.3385 14.2734 42.3493 8.60938 42.4248H7.78809V35.5146H8.32617C11.4603 35.4958 13.8109 34.6839 15.3779 33.0791C16.9639 31.4743 17.9173 29.1331 18.2383 26.0557ZM14.6982 22.374C16.2464 22.374 17.4642 21.3167 18.3516 19.2021V15.5205C18.3516 12.8206 17.9834 10.7061 17.2471 9.17676C16.5107 7.62858 15.5573 6.85449 14.3867 6.85449C13.235 6.85449 12.3005 7.61914 11.583 9.14844C10.8844 10.6589 10.5352 12.5091 10.5352 14.6992C10.5352 17.0781 10.9033 18.9567 11.6396 20.335C12.376 21.6943 13.3955 22.374 14.6982 22.374ZM55.9893 24.9512C55.9893 30.653 54.9508 35.0143 52.874 38.0352C50.8161 41.056 47.8708 42.5664 44.0381 42.5664C40.2432 42.5664 37.3073 41.1032 35.2305 38.1768C33.1725 35.2314 32.1058 31.0212 32.0303 25.5459V17.7578C32.0303 12.0749 33.0592 7.73242 35.1172 4.73047C37.1751 1.70964 40.1299 0.199219 43.9814 0.199219C47.833 0.199219 50.7878 1.69076 52.8457 4.67383C54.9036 7.6569 55.9515 11.9144 55.9893 17.4463V24.9512ZM47.9463 16.5967C47.9463 13.3493 47.6253 10.9137 46.9834 9.29004C46.3415 7.66634 45.3408 6.85449 43.9814 6.85449C41.4326 6.85449 40.111 9.82812 40.0166 15.7754V26.0557C40.0166 29.3786 40.3376 31.8519 40.9795 33.4756C41.6403 35.0993 42.6598 35.9111 44.0381 35.9111C45.3408 35.9111 46.3037 35.1559 46.9268 33.6455C47.5687 32.1162 47.9085 29.7845 47.9463 26.6504V16.5967ZM85.3291 24.9512C85.3291 30.653 84.2907 35.0143 82.2139 38.0352C80.1559 41.056 77.2106 42.5664 73.3779 42.5664C69.583 42.5664 66.6471 41.1032 64.5703 38.1768C62.5124 35.2314 61.4456 31.0212 61.3701 25.5459V17.7578C61.3701 12.0749 62.3991 7.73242 64.457 4.73047C66.515 1.70964 69.4697 0.199219 73.3213 0.199219C77.1729 0.199219 80.1276 1.69076 82.1855 4.67383C84.2435 7.6569 85.2913 11.9144 85.3291 17.4463V24.9512ZM77.2861 16.5967C77.2861 13.3493 76.9652 10.9137 76.3232 9.29004C75.6813 7.66634 74.6807 6.85449 73.3213 6.85449C70.7725 6.85449 69.4508 9.82812 69.3564 15.7754V26.0557C69.3564 29.3786 69.6774 31.8519 70.3193 33.4756C70.9801 35.0993 71.9997 35.9111 73.3779 35.9111C74.6807 35.9111 75.6436 35.1559 76.2666 33.6455C76.9085 32.1162 77.2484 29.7845 77.2861 26.6504V16.5967Z" fill="url(#paint0_linear_1_617)"/>
<path d="M32.9121 58.8486H32.2285V62H31.0186V54.6035H32.2285V57.7344H32.8301L34.8467 54.6035H36.2891L33.8213 58.124L36.4668 62H34.9492L32.9121 58.8486ZM37.7383 62V54.6035H40.2197C41.0674 54.6035 41.7145 54.7767 42.1611 55.123C42.6077 55.4694 42.8311 55.973 42.8311 56.6338C42.8311 56.9756 42.7422 57.2832 42.5645 57.5566C42.3867 57.8301 42.127 58.0397 41.7852 58.1855C42.1634 58.2858 42.4665 58.4886 42.6943 58.7939C42.9268 59.0993 43.043 59.4684 43.043 59.9014C43.043 60.585 42.8288 61.1068 42.4004 61.4668C41.9766 61.8223 41.375 62 40.5957 62H37.7383ZM38.9414 58.7529V60.9814H40.6094C41.4251 60.9814 41.833 60.6077 41.833 59.8604C41.833 59.1221 41.4206 58.7529 40.5957 58.7529H38.9414ZM38.9414 57.7412H40.2061C41.1494 57.7412 41.6211 57.3949 41.6211 56.7021C41.6211 56.0049 41.1768 55.6471 40.2881 55.6289H38.9414V57.7412ZM45.0186 62.8545H43.9932L47.4863 52.0469H48.5049L45.0186 62.8545ZM53.5088 60.3252L55.4912 54.6035H56.9951V62H55.792V56.9004L53.9258 62H53.0986L51.1914 56.7773V62H49.9883V54.6035H51.5469L53.5088 60.3252Z" fill="#2E35AC"/>

</symbol><symbol id="fb-footer" viewBox="0 0 12 24">
<path d="M11.5481 0.0049936L8.66986 0C5.43624 0 3.34653 2.31828 3.34653 5.90643V8.62969H0.452578C0.202506 8.62969 0 8.84891 0 9.11932V13.065C0 13.3354 0.202736 13.5544 0.452578 13.5544H3.34653V23.5106C3.34653 23.781 3.54904 24 3.79911 24H7.5749C7.82497 24 8.02748 23.7808 8.02748 23.5106V13.5544H11.4112C11.6613 13.5544 11.8638 13.3354 11.8638 13.065L11.8652 9.11932C11.8652 8.98948 11.8174 8.86514 11.7326 8.77326C11.6479 8.68138 11.5324 8.62969 11.4123 8.62969H8.02748V6.32115C8.02748 5.21157 8.27201 4.64829 9.60873 4.64829L11.5477 4.64755C11.7975 4.64755 12 4.42833 12 4.15817V0.494367C12 0.224462 11.7977 0.00549296 11.5481 0.0049936Z" fill="white"/>
</symbol><symbol id="fb-header" viewBox="0 0 12 9">
<path d="M4.55859 5.23242H1.67578V9H0.603516V0.46875H5.04492V1.39453H1.67578V4.3125H4.55859V5.23242ZM6.36914 9V0.46875H8.80078C9.57812 0.46875 10.1621 0.658203 10.5527 1.03711C10.9473 1.41602 11.1445 1.98438 11.1445 2.74219C11.1445 3.14062 11.0449 3.49219 10.8457 3.79688C10.6465 4.10156 10.377 4.33789 10.0371 4.50586C10.4277 4.62305 10.7363 4.86328 10.9629 5.22656C11.1934 5.58984 11.3086 6.02734 11.3086 6.53906C11.3086 7.30469 11.0977 7.90625 10.6758 8.34375C10.2578 8.78125 9.66016 9 8.88281 9H6.36914ZM7.44141 5.00977V8.08008H8.90625C9.3125 8.08008 9.63477 7.94727 9.87305 7.68164C10.1113 7.41211 10.2305 7.03516 10.2305 6.55078C10.2305 5.52344 9.79688 5.00977 8.92969 5.00977H7.44141ZM7.44141 4.10742H8.81836C9.18945 4.10742 9.48828 3.98242 9.71484 3.73242C9.94531 3.48242 10.0605 3.15039 10.0605 2.73633C10.0605 2.26758 9.95703 1.92773 9.75 1.7168C9.54297 1.50195 9.22656 1.39453 8.80078 1.39453H7.44141V4.10742Z" fill="white"/>
</symbol><symbol id="ig-footer" viewBox="0 0 24 24">
<path d="M17.5034 0H6.49658C2.91431 0 0 2.91431 0 6.49658V17.5036C0 21.0857 2.91431 24 6.49658 24H17.5036C21.0857 24 24 21.0857 24 17.5036V6.49658C24 2.91431 21.0857 0 17.5034 0V0ZM12 18.5623C8.38147 18.5623 5.43768 15.6185 5.43768 12C5.43768 8.38147 8.38147 5.43768 12 5.43768C15.6185 5.43768 18.5623 8.38147 18.5623 12C18.5623 15.6185 15.6185 18.5623 12 18.5623ZM18.7192 6.98529C17.6499 6.98529 16.7802 6.11554 16.7802 5.0462C16.7802 3.97687 17.6499 3.10693 18.7192 3.10693C19.7886 3.10693 20.6585 3.97687 20.6585 5.0462C20.6585 6.11554 19.7886 6.98529 18.7192 6.98529Z" fill="white"/>
<path d="M12.0001 6.84448C9.15753 6.84448 6.84473 9.1571 6.84473 11.9998C6.84473 14.8423 9.15753 17.1552 12.0001 17.1552C14.8428 17.1552 17.1554 14.8423 17.1554 11.9998C17.1554 9.1571 14.8428 6.84448 12.0001 6.84448Z" fill="white"/>
<path d="M18.7186 4.51392C18.4253 4.51392 18.1865 4.75269 18.1865 5.04602C18.1865 5.33936 18.4253 5.57812 18.7186 5.57812C19.0121 5.57812 19.2509 5.33954 19.2509 5.04602C19.2509 4.7525 19.0121 4.51392 18.7186 4.51392Z" fill="white"/>
</symbol><symbol id="ig-header" viewBox="0 0 10 10">
<path d="M1.94922 9H0.876953V0.46875H1.94922V9ZM9.16797 7.93945L8.98047 8.17383C8.44141 8.80273 7.65234 9.11719 6.61328 9.11719C5.69141 9.11719 4.9668 8.8125 4.43945 8.20312C3.91602 7.58984 3.64844 6.72461 3.63672 5.60742V3.93164C3.63672 2.73633 3.875 1.8418 4.35156 1.24805C4.83203 0.650391 5.54883 0.351562 6.50195 0.351562C7.31445 0.351562 7.94922 0.578125 8.40625 1.03125C8.86719 1.48437 9.12109 2.13086 9.16797 2.9707H8.0957C8.05273 2.43945 7.9043 2.02539 7.65039 1.72852C7.40039 1.42773 7.01953 1.27734 6.50781 1.27734C5.89453 1.27734 5.44531 1.47852 5.16016 1.88086C4.875 2.2793 4.72656 2.91797 4.71484 3.79688V5.53711C4.71484 6.39648 4.87891 7.05664 5.20703 7.51758C5.53516 7.97461 6.00586 8.20312 6.61914 8.20312C7.19727 8.20312 7.63672 8.0625 7.9375 7.78125L8.0957 7.63477V5.66602H6.53711V4.75195H9.16797V7.93945Z" fill="white"/>
</symbol><symbol id="play" viewBox="0 0 100 100">
<circle cx="50" cy="50" r="49" stroke="url(#paint0_linear_1_155)" stroke-opacity="0.2" stroke-width="2"/>
<circle cx="50" cy="50" r="36" fill="url(#paint1_linear_1_155)"/>
<path d="M59 49.5L46.25 56.8612L46.25 42.1388L59 49.5Z" fill="white"/>

</symbol><symbol id="rouble" viewBox="0 0 30 42">
<path fill-rule="evenodd" clip-rule="evenodd" d="M0 17H6V23H0V17Z" fill="#102654"/>
<path fill-rule="evenodd" clip-rule="evenodd" d="M3.65854 28.3214V18H9.65854V28.3214H21V34.3214H9.65854V42H3.65854V34.3214H0V28.3214H3.65854Z" fill="#102654"/>
<path fill-rule="evenodd" clip-rule="evenodd" d="M18.5 6H10V17H18.5C21.5376 17 24 14.5376 24 11.5C24 8.46243 21.5376 6 18.5 6ZM4 0V23H18.5C24.8513 23 30 17.8513 30 11.5C30 5.14873 24.8513 0 18.5 0H4Z" fill="#102654"/>
</symbol><symbol id="sprite">

      <symbol viewBox="0 0 87 20" id="logotype">
        <g>
          <path d="M0.676 5.168C0.676 3.69467 1.03133 2.568 1.742 1.788C2.45267 0.990666 3.50133 0.592 4.888 0.592C6.27467 0.592 7.32333 0.990666 8.034 1.788C8.74467 2.568 9.1 3.69467 9.1 5.168V5.74H6.396V4.986C6.396 3.79 5.91933 3.192 4.966 3.192C4.01267 3.192 3.536 3.79 3.536 4.986C3.536 5.662 3.72667 6.30333 4.108 6.91C4.48933 7.49933 4.94867 8.03667 5.486 8.522C6.04067 9.00733 6.59533 9.51867 7.15 10.056C7.70467 10.576 8.17267 11.2347 8.554 12.032C8.93533 12.812 9.126 13.6787 9.126 14.632C9.126 16.1053 8.762 17.2407 8.034 18.038C7.306 18.818 6.24867 19.208 4.862 19.208C3.47533 19.208 2.418 18.818 1.69 18.038C0.962 17.2407 0.598 16.1053 0.598 14.632V13.514H3.302V14.814C3.302 15.9927 3.796 16.582 4.784 16.582C5.772 16.582 6.266 15.9927 6.266 14.814C6.266 14.138 6.07533 13.5053 5.694 12.916C5.31267 12.3093 4.84467 11.7633 4.29 11.278C3.75267 10.7927 3.20667 10.29 2.652 9.77C2.09733 9.23267 1.62933 8.574 1.248 7.794C0.866667 6.99667 0.676 6.12133 0.676 5.168ZM11.1546 0.799999H14.0146V14.84C14.0146 16.0187 14.5086 16.608 15.4966 16.608C16.4846 16.608 16.9786 16.0187 16.9786 14.84V0.799999H19.6826V14.658C19.6826 16.1313 19.3186 17.2667 18.5906 18.064C17.8626 18.844 16.8053 19.234 15.4186 19.234C14.0319 19.234 12.9746 18.844 12.2466 18.064C11.5186 17.2667 11.1546 16.1313 11.1546 14.658V0.799999ZM26.376 0.799999C29.2187 0.799999 30.64 2.29933 30.64 5.298V7.664C30.64 10.6627 29.2187 12.162 26.376 12.162H25.024V19H22.164V0.799999H26.376ZM26.376 3.4H25.024V9.562H26.376C26.844 9.562 27.1907 9.432 27.416 9.172C27.6587 8.912 27.78 8.47 27.78 7.846V5.116C27.78 4.492 27.6587 4.05 27.416 3.79C27.1907 3.53 26.844 3.4 26.376 3.4ZM35.3448 3.4V8.47H39.2708V11.07H35.3448V16.4H40.2848V19H32.4848V0.799999H40.2848V3.4H35.3448ZM51.469 19H48.557C48.3837 18.48 48.297 17.7347 48.297 16.764V13.904C48.297 13.072 48.1497 12.4827 47.855 12.136C47.5604 11.772 47.0837 11.59 46.425 11.59H45.437V19H42.577V0.799999H46.893C48.3664 0.799999 49.441 1.14667 50.117 1.84C50.793 2.516 51.131 3.56467 51.131 4.986V6.416C51.131 8.288 50.507 9.51867 49.259 10.108C50.5244 10.6453 51.157 11.9367 51.157 13.982V16.79C51.157 17.778 51.261 18.5147 51.469 19ZM46.815 3.4H45.437V8.99H46.555C47.127 8.99 47.5517 8.84267 47.829 8.548C48.1237 8.25333 48.271 7.75933 48.271 7.066V5.272C48.271 4.024 47.7857 3.4 46.815 3.4ZM57.848 11.46V8.86H61.852V14.632C61.852 16.1053 61.488 17.2407 60.76 18.038C60.032 18.818 58.9746 19.208 57.588 19.208C56.2013 19.208 55.144 18.818 54.416 18.038C53.688 17.2407 53.324 16.1053 53.324 14.632V5.168C53.324 3.69467 53.688 2.568 54.416 1.788C55.144 0.990666 56.2013 0.592 57.588 0.592C58.9746 0.592 60.032 0.990666 60.76 1.788C61.488 2.568 61.852 3.69467 61.852 5.168V6.936H59.148V4.986C59.148 3.79 58.654 3.192 57.666 3.192C56.678 3.192 56.184 3.79 56.184 4.986V14.814C56.184 15.9927 56.678 16.582 57.666 16.582C58.654 16.582 59.148 15.9927 59.148 14.814V11.46H57.848ZM66.506 19V12.968L62.892 0.799999H65.882L68.066 9.094L70.25 0.799999H72.98L69.366 12.968V19H66.506ZM78.6086 0.799999L80.7146 13.722L82.6646 0.799999H86.6426V19H83.9386V5.948L81.9626 19H79.2586L77.1266 6.13V19H74.6306V0.799999H78.6086Z"/>
        </g>
      </symbol>

      <symbol viewBox="0 0 12 09" id="fb-header">
        <g>
          <path d="M4.55859 5.23242H1.67578V9H0.603516V0.46875H5.04492V1.39453H1.67578V4.3125H4.55859V5.23242ZM6.36914 9V0.46875H8.80078C9.57812 0.46875 10.1621 0.658203 10.5527 1.03711C10.9473 1.41602 11.1445 1.98438 11.1445 2.74219C11.1445 3.14062 11.0449 3.49219 10.8457 3.79688C10.6465 4.10156 10.377 4.33789 10.0371 4.50586C10.4277 4.62305 10.7363 4.86328 10.9629 5.22656C11.1934 5.58984 11.3086 6.02734 11.3086 6.53906C11.3086 7.30469 11.0977 7.90625 10.6758 8.34375C10.2578 8.78125 9.66016 9 8.88281 9H6.36914ZM7.44141 5.00977V8.08008H8.90625C9.3125 8.08008 9.63477 7.94727 9.87305 7.68164C10.1113 7.41211 10.2305 7.03516 10.2305 6.55078C10.2305 5.52344 9.79688 5.00977 8.92969 5.00977H7.44141ZM7.44141 4.10742H8.81836C9.18945 4.10742 9.48828 3.98242 9.71484 3.73242C9.94531 3.48242 10.0605 3.15039 10.0605 2.73633C10.0605 2.26758 9.95703 1.92773 9.75 1.7168C9.54297 1.50195 9.22656 1.39453 8.80078 1.39453H7.44141V4.10742Z"/>
        </g>
      </symbol>

      <symbol viewBox="0 0 12 24" id="fb-footer">
        <g>
          <path d="M11.5481 0.0049936L8.66986 0C5.43624 0 3.34653 2.31828 3.34653 5.90643V8.62969H0.452578C0.202506 8.62969 0 8.84891 0 9.11932V13.065C0 13.3354 0.202736 13.5544 0.452578 13.5544H3.34653V23.5106C3.34653 23.781 3.54904 24 3.79911 24H7.5749C7.82497 24 8.02748 23.7808 8.02748 23.5106V13.5544H11.4112C11.6613 13.5544 11.8638 13.3354 11.8638 13.065L11.8652 9.11932C11.8652 8.98948 11.8174 8.86514 11.7326 8.77326C11.6479 8.68138 11.5324 8.62969 11.4123 8.62969H8.02748V6.32115C8.02748 5.21157 8.27201 4.64829 9.60873 4.64829L11.5477 4.64755C11.7975 4.64755 12 4.42833 12 4.15817V0.494367C12 0.224462 11.7977 0.00549296 11.5481 0.0049936Z"/>
        </g>
      </symbol>

      <symbol viewBox="0 0 14 09" id="vk-header">
        <g>
          <path d="M4.0918 7.35352L6.04297 0.46875H7.2207L4.56641 9H3.62891L0.980469 0.46875H2.15234L4.0918 7.35352ZM10.291 5.06836L9.45312 6.08203V9H8.38086V0.46875H9.45312V4.58789L10.1562 3.65625L12.4531 0.46875H13.7422L10.9707 4.22461L13.959 9H12.6758L10.291 5.06836Z"/>
        </g>
      </symbol>

      <symbol viewBox="0 0 24 13" id="vk-footer">
        <g>
          <path fill-rule="evenodd" clip-rule="evenodd" d="M20.6554 8.26599C21.4515 9.00996 22.2918 9.70992 23.0058 10.5289C23.3212 10.8929 23.6199 11.2684 23.8483 11.6908C24.172 12.2912 23.8788 12.9519 23.3163 12.9878L19.82 12.9863C18.9182 13.0579 18.1988 12.7104 17.5939 12.1203C17.1098 11.6483 16.6615 11.146 16.1961 10.6581C16.0052 10.4587 15.8055 10.2711 15.5669 10.1228C15.0896 9.82623 14.6753 9.91703 14.4025 10.3935C14.1247 10.8781 14.0617 11.4148 14.0344 11.9549C13.997 12.7429 13.7481 12.9501 12.9211 12.9862C11.1537 13.066 9.47629 12.81 7.91806 11.9566C6.54426 11.2043 5.47894 10.1422 4.5517 8.93977C2.74634 6.59842 1.36379 4.02567 0.121208 1.38084C-0.158487 0.784951 0.0460603 0.465084 0.732957 0.453762C1.87358 0.432554 3.01405 0.434063 4.15601 0.452253C4.61959 0.458744 4.92649 0.713249 5.10549 1.13244C5.7226 2.58483 6.47771 3.96665 7.42553 5.24748C7.67794 5.58848 7.93532 5.92948 8.30184 6.16949C8.7073 6.43524 9.01602 6.34716 9.20677 5.91484C9.32781 5.64071 9.3808 5.34544 9.40808 5.05184C9.49845 4.04175 9.51035 3.03338 9.35186 2.02684C9.25455 1.39865 8.88488 0.991982 8.23 0.873108C7.89582 0.8125 7.94558 0.693475 8.10738 0.510898C8.38842 0.196012 8.65274 0 9.17964 0H13.1311C13.7532 0.117516 13.8913 0.385004 13.9765 0.984133L13.9799 5.18536C13.9731 5.4173 14.1009 6.10556 14.5374 6.25908C14.8867 6.36837 15.117 6.10088 15.3265 5.88887C16.2726 4.92776 16.9479 3.79192 17.5511 2.61578C17.8188 2.09861 18.049 1.56153 18.2721 1.02489C18.4373 0.626678 18.6967 0.430742 19.1653 0.439422L22.9684 0.442667C23.0811 0.442667 23.1952 0.444252 23.3044 0.46214C23.9453 0.566675 24.1209 0.830539 23.923 1.42952C23.6111 2.36927 23.0043 3.15241 22.411 3.93917C21.7768 4.77915 21.0985 5.59036 20.4696 6.43532C19.8917 7.20691 19.9376 7.59584 20.6554 8.26599Z"/>
        </g>
      </symbol>

      <symbol viewBox="0 0 10 10" id="ig-header">
        <g>
          <path d="M1.94922 9H0.876953V0.46875H1.94922V9ZM9.16797 7.93945L8.98047 8.17383C8.44141 8.80273 7.65234 9.11719 6.61328 9.11719C5.69141 9.11719 4.9668 8.8125 4.43945 8.20312C3.91602 7.58984 3.64844 6.72461 3.63672 5.60742V3.93164C3.63672 2.73633 3.875 1.8418 4.35156 1.24805C4.83203 0.650391 5.54883 0.351562 6.50195 0.351562C7.31445 0.351562 7.94922 0.578125 8.40625 1.03125C8.86719 1.48437 9.12109 2.13086 9.16797 2.9707H8.0957C8.05273 2.43945 7.9043 2.02539 7.65039 1.72852C7.40039 1.42773 7.01953 1.27734 6.50781 1.27734C5.89453 1.27734 5.44531 1.47852 5.16016 1.88086C4.875 2.2793 4.72656 2.91797 4.71484 3.79688V5.53711C4.71484 6.39648 4.87891 7.05664 5.20703 7.51758C5.53516 7.97461 6.00586 8.20312 6.61914 8.20312C7.19727 8.20312 7.63672 8.0625 7.9375 7.78125L8.0957 7.63477V5.66602H6.53711V4.75195H9.16797V7.93945Z"/>
        </g>
      </symbol>

      <symbol viewBox="0 0 24 24" id="ig-footer">
        <g>
          <path d="M17.5034 0H6.49658C2.91431 0 0 2.91431 0 6.49658V17.5036C0 21.0857 2.91431 24 6.49658 24H17.5036C21.0857 24 24 21.0857 24 17.5036V6.49658C24 2.91431 21.0857 0 17.5034 0V0ZM12 18.5623C8.38147 18.5623 5.43768 15.6185 5.43768 12C5.43768 8.38147 8.38147 5.43768 12 5.43768C15.6185 5.43768 18.5623 8.38147 18.5623 12C18.5623 15.6185 15.6185 18.5623 12 18.5623ZM18.7192 6.98529C17.6499 6.98529 16.7802 6.11554 16.7802 5.0462C16.7802 3.97687 17.6499 3.10693 18.7192 3.10693C19.7886 3.10693 20.6585 3.97687 20.6585 5.0462C20.6585 6.11554 19.7886 6.98529 18.7192 6.98529Z"/>
          <path d="M12.0001 6.84448C9.15753 6.84448 6.84473 9.1571 6.84473 11.9998C6.84473 14.8423 9.15753 17.1552 12.0001 17.1552C14.8428 17.1552 17.1554 14.8423 17.1554 11.9998C17.1554 9.1571 14.8428 6.84448 12.0001 6.84448Z"/>
          <path d="M18.7186 4.51392C18.4253 4.51392 18.1865 4.75269 18.1865 5.04602C18.1865 5.33936 18.4253 5.57812 18.7186 5.57812C19.0121 5.57812 19.2509 5.33954 19.2509 5.04602C19.2509 4.7525 19.0121 4.51392 18.7186 4.51392Z"/>
        </g>
      </symbol>

      <symbol viewBox="0 0 100 100" id="play">
        <g>
          <circle cx="50" cy="50" r="49" stroke="url(#paint0_linear_1_155)" stroke-opacity="0.2" stroke-width="2"/>
          <circle cx="50" cy="50" r="36" fill="url(#paint1_linear_1_155)"/>
          <path d="M59 49.5L46.25 56.8612L46.25 42.1388L59 49.5Z" fill="white"/>
          
        </g>
      </symbol>

      <symbol viewBox="0 0 30 42" id="rouble">
        <g>
          <path fill-rule="evenodd" clip-rule="evenodd" d="M0 17H6V23H0V17Z"/>
          <path fill-rule="evenodd" clip-rule="evenodd" d="M3.65854 28.3214V18H9.65854V28.3214H21V34.3214H9.65854V42H3.65854V34.3214H0V28.3214H3.65854Z"/>
          <path fill-rule="evenodd" clip-rule="evenodd" d="M18.5 6H10V17H18.5C21.5376 17 24 14.5376 24 11.5C24 8.46243 21.5376 6 18.5 6ZM4 0V23H18.5C24.8513 23 30 17.8513 30 11.5C30 5.14873 24.8513 0 18.5 0H4Z"/>
        <g>
      </g></g></symbol>
</symbol><symbol id="supergym" viewBox="0 0 87 20">
<path d="M0.676 5.168C0.676 3.69467 1.03133 2.568 1.742 1.788C2.45267 0.990666 3.50133 0.592 4.888 0.592C6.27467 0.592 7.32333 0.990666 8.034 1.788C8.74467 2.568 9.1 3.69467 9.1 5.168V5.74H6.396V4.986C6.396 3.79 5.91933 3.192 4.966 3.192C4.01267 3.192 3.536 3.79 3.536 4.986C3.536 5.662 3.72667 6.30333 4.108 6.91C4.48933 7.49933 4.94867 8.03667 5.486 8.522C6.04067 9.00733 6.59533 9.51867 7.15 10.056C7.70467 10.576 8.17267 11.2347 8.554 12.032C8.93533 12.812 9.126 13.6787 9.126 14.632C9.126 16.1053 8.762 17.2407 8.034 18.038C7.306 18.818 6.24867 19.208 4.862 19.208C3.47533 19.208 2.418 18.818 1.69 18.038C0.962 17.2407 0.598 16.1053 0.598 14.632V13.514H3.302V14.814C3.302 15.9927 3.796 16.582 4.784 16.582C5.772 16.582 6.266 15.9927 6.266 14.814C6.266 14.138 6.07533 13.5053 5.694 12.916C5.31267 12.3093 4.84467 11.7633 4.29 11.278C3.75267 10.7927 3.20667 10.29 2.652 9.77C2.09733 9.23267 1.62933 8.574 1.248 7.794C0.866667 6.99667 0.676 6.12133 0.676 5.168ZM11.1546 0.799999H14.0146V14.84C14.0146 16.0187 14.5086 16.608 15.4966 16.608C16.4846 16.608 16.9786 16.0187 16.9786 14.84V0.799999H19.6826V14.658C19.6826 16.1313 19.3186 17.2667 18.5906 18.064C17.8626 18.844 16.8053 19.234 15.4186 19.234C14.0319 19.234 12.9746 18.844 12.2466 18.064C11.5186 17.2667 11.1546 16.1313 11.1546 14.658V0.799999ZM26.376 0.799999C29.2187 0.799999 30.64 2.29933 30.64 5.298V7.664C30.64 10.6627 29.2187 12.162 26.376 12.162H25.024V19H22.164V0.799999H26.376ZM26.376 3.4H25.024V9.562H26.376C26.844 9.562 27.1907 9.432 27.416 9.172C27.6587 8.912 27.78 8.47 27.78 7.846V5.116C27.78 4.492 27.6587 4.05 27.416 3.79C27.1907 3.53 26.844 3.4 26.376 3.4ZM35.3448 3.4V8.47H39.2708V11.07H35.3448V16.4H40.2848V19H32.4848V0.799999H40.2848V3.4H35.3448ZM51.469 19H48.557C48.3837 18.48 48.297 17.7347 48.297 16.764V13.904C48.297 13.072 48.1497 12.4827 47.855 12.136C47.5604 11.772 47.0837 11.59 46.425 11.59H45.437V19H42.577V0.799999H46.893C48.3664 0.799999 49.441 1.14667 50.117 1.84C50.793 2.516 51.131 3.56467 51.131 4.986V6.416C51.131 8.288 50.507 9.51867 49.259 10.108C50.5244 10.6453 51.157 11.9367 51.157 13.982V16.79C51.157 17.778 51.261 18.5147 51.469 19ZM46.815 3.4H45.437V8.99H46.555C47.127 8.99 47.5517 8.84267 47.829 8.548C48.1237 8.25333 48.271 7.75933 48.271 7.066V5.272C48.271 4.024 47.7857 3.4 46.815 3.4ZM57.848 11.46V8.86H61.852V14.632C61.852 16.1053 61.488 17.2407 60.76 18.038C60.032 18.818 58.9746 19.208 57.588 19.208C56.2013 19.208 55.144 18.818 54.416 18.038C53.688 17.2407 53.324 16.1053 53.324 14.632V5.168C53.324 3.69467 53.688 2.568 54.416 1.788C55.144 0.990666 56.2013 0.592 57.588 0.592C58.9746 0.592 60.032 0.990666 60.76 1.788C61.488 2.568 61.852 3.69467 61.852 5.168V6.936H59.148V4.986C59.148 3.79 58.654 3.192 57.666 3.192C56.678 3.192 56.184 3.79 56.184 4.986V14.814C56.184 15.9927 56.678 16.582 57.666 16.582C58.654 16.582 59.148 15.9927 59.148 14.814V11.46H57.848ZM66.506 19V12.968L62.892 0.799999H65.882L68.066 9.094L70.25 0.799999H72.98L69.366 12.968V19H66.506ZM78.6086 0.799999L80.7146 13.722L82.6646 0.799999H86.6426V19H83.9386V5.948L81.9626 19H79.2586L77.1266 6.13V19H74.6306V0.799999H78.6086Z" fill="white"/>
</symbol><symbol id="vk-footer" viewBox="0 0 24 13">
<path fill-rule="evenodd" clip-rule="evenodd" d="M20.6554 8.26599C21.4515 9.00996 22.2918 9.70992 23.0058 10.5289C23.3212 10.8929 23.6199 11.2684 23.8483 11.6908C24.172 12.2912 23.8788 12.9519 23.3163 12.9878L19.82 12.9863C18.9182 13.0579 18.1988 12.7104 17.5939 12.1203C17.1098 11.6483 16.6615 11.146 16.1961 10.6581C16.0052 10.4587 15.8055 10.2711 15.5669 10.1228C15.0896 9.82623 14.6753 9.91703 14.4025 10.3935C14.1247 10.8781 14.0617 11.4148 14.0344 11.9549C13.997 12.7429 13.7481 12.9501 12.9211 12.9862C11.1537 13.066 9.47629 12.81 7.91806 11.9566C6.54426 11.2043 5.47894 10.1422 4.5517 8.93977C2.74634 6.59842 1.36379 4.02567 0.121208 1.38084C-0.158487 0.784951 0.0460603 0.465084 0.732957 0.453762C1.87358 0.432554 3.01405 0.434063 4.15601 0.452253C4.61959 0.458744 4.92649 0.713249 5.10549 1.13244C5.7226 2.58483 6.47771 3.96665 7.42553 5.24748C7.67794 5.58848 7.93532 5.92948 8.30184 6.16949C8.7073 6.43524 9.01602 6.34716 9.20677 5.91484C9.32781 5.64071 9.3808 5.34544 9.40808 5.05184C9.49845 4.04175 9.51035 3.03338 9.35186 2.02684C9.25455 1.39865 8.88488 0.991982 8.23 0.873108C7.89582 0.8125 7.94558 0.693475 8.10738 0.510898C8.38842 0.196012 8.65274 0 9.17964 0H13.1311C13.7532 0.117516 13.8913 0.385004 13.9765 0.984133L13.9799 5.18536C13.9731 5.4173 14.1009 6.10556 14.5374 6.25908C14.8867 6.36837 15.117 6.10088 15.3265 5.88887C16.2726 4.92776 16.9479 3.79192 17.5511 2.61578C17.8188 2.09861 18.049 1.56153 18.2721 1.02489C18.4373 0.626678 18.6967 0.430742 19.1653 0.439422L22.9684 0.442667C23.0811 0.442667 23.1952 0.444252 23.3044 0.46214C23.9453 0.566675 24.1209 0.830539 23.923 1.42952C23.6111 2.36927 23.0043 3.15241 22.411 3.93917C21.7768 4.77915 21.0985 5.59036 20.4696 6.43532C19.8917 7.20691 19.9376 7.59584 20.6554 8.26599Z" fill="white"/>
</symbol><symbol id="vk-header" viewBox="0 0 14 9">
<path d="M4.0918 7.35352L6.04297 0.46875H7.2207L4.56641 9H3.62891L0.980469 0.46875H2.15234L4.0918 7.35352ZM10.291 5.06836L9.45312 6.08203V9H8.38086V0.46875H9.45312V4.58789L10.1562 3.65625L12.4531 0.46875H13.7422L10.9707 4.22461L13.959 9H12.6758L10.291 5.06836Z" fill="white"/>
</symbol></svg>